<?xml version="1.0" encoding="utf-8"?>
<!-- Generator: Adobe Illustrator 17.1.0, SVG Export Plug-In . SVG Version: 6.00 Build 0)  -->
<!DOCTYPE svg PUBLIC "-//W3C//DTD SVG 1.1//EN" "http://www.w3.org/Graphics/SVG/1.1/DTD/svg11.dtd">
<svg version="1.1" id="Layer_1" xmlns="http://www.w3.org/2000/svg" xmlns:xlink="http://www.w3.org/1999/xlink" x="0px" y="0px"
	 viewBox="0 0 1068 234.5" enable-background="new 0 0 1068 234.5" xml:space="preserve">
<g>
	<g>
		<path fill="#529DD9" d="M97.2,109.1c-7.6,6.5-14.9,11-22,13.7c-7,2.7-14.6,4-22.7,4c-13.3,0-23.6-3.3-30.7-9.8
			c-7.2-6.5-10.7-14.8-10.7-25c0-5.9,1.4-11.4,4.1-16.3c2.7-4.9,6.2-8.9,10.6-11.8c4.4-3,9.3-5.2,14.8-6.7c4-1.1,10.1-2.1,18.3-3.1
			c16.6-2,28.8-4.3,36.7-7.1c0.1-2.8,0.1-4.6,0.1-5.4c0-8.4-1.9-14.3-5.8-17.7c-5.3-4.6-13.1-7-23.4-7c-9.7,0-16.8,1.7-21.4,5.1
			c-4.6,3.4-8,9.4-10.2,18l-20.1-2.7c1.8-8.6,4.8-15.6,9-20.9c4.2-5.3,10.2-9.4,18.2-12.2C49.7,1.4,58.9,0,69.3,0
			c10.4,0,18.8,1.2,25.3,3.7c6.5,2.4,11.2,5.5,14.3,9.2c3,3.7,5.2,8.4,6.4,14c0.7,3.5,1,9.8,1,19v27.4c0,19.1,0.4,31.2,1.3,36.3
			c0.9,5.1,2.6,9.9,5.2,14.6h-21.5C99.2,119.8,97.8,114.8,97.2,109.1z M95.5,63.2c-7.5,3-18.7,5.6-33.6,7.8
			c-8.5,1.2-14.4,2.6-17.9,4.1c-3.5,1.5-6.2,3.8-8.1,6.7c-1.9,2.9-2.9,6.2-2.9,9.8c0,5.5,2.1,10.1,6.2,13.7
			c4.2,3.7,10.2,5.5,18.2,5.5c7.9,0,15-1.7,21.1-5.2c6.2-3.5,10.7-8.2,13.6-14.2c2.2-4.6,3.3-11.5,3.3-20.6V63.2z"/>
	</g>
	<g>
		<path fill="#529DD9" d="M208.6,109.1c-7.6,6.5-14.9,11-22,13.7c-7,2.7-14.6,4-22.7,4c-13.3,0-23.6-3.3-30.7-9.8
			c-7.2-6.5-10.7-14.8-10.7-25c0-5.9,1.4-11.4,4.1-16.3c2.7-4.9,6.2-8.9,10.6-11.8c4.4-3,9.3-5.2,14.8-6.7c4-1.1,10.1-2.1,18.3-3.1
			c16.6-2,28.8-4.3,36.7-7.1c0.1-2.8,0.1-4.6,0.1-5.4c0-8.4-1.9-14.3-5.8-17.7c-5.3-4.6-13.1-7-23.4-7c-9.7,0-16.8,1.7-21.4,5.1
			c-4.6,3.4-8,9.4-10.2,18L126,37.4c1.8-8.6,4.8-15.6,9-20.9c4.2-5.3,10.2-9.4,18.2-12.2c7.9-2.9,17.1-4.3,27.5-4.3
			c10.4,0,18.8,1.2,25.3,3.7c6.5,2.4,11.2,5.5,14.3,9.2c3,3.7,5.2,8.4,6.4,14c0.7,3.5,1,9.8,1,19v27.4c0,19.1,0.4,31.2,1.3,36.3
			c0.9,5.1,2.6,9.9,5.2,14.6h-21.5C210.6,119.8,209.2,114.8,208.6,109.1z M206.9,63.2c-7.5,3-18.7,5.6-33.6,7.8
			c-8.5,1.2-14.4,2.6-17.9,4.1c-3.5,1.5-6.2,3.8-8.1,6.7c-1.9,2.9-2.9,6.2-2.9,9.8c0,5.5,2.1,10.1,6.2,13.7
			c4.2,3.7,10.2,5.5,18.2,5.5c7.9,0,15-1.7,21.1-5.2c6.2-3.5,10.7-8.2,13.6-14.2c2.2-4.6,3.3-11.5,3.3-20.6V63.2z"/>
	</g>
	<g>
		<path fill="#529DD9" d="M240.6,124.1V2.7h18.5v18.4c4.7-8.6,9.1-14.3,13.1-17S280.6,0,285.4,0c6.9,0,14,2.2,21.1,6.6l-7.1,19.1
			c-5-3-10.1-4.5-15.1-4.5c-4.5,0-8.5,1.4-12.1,4.1c-3.6,2.7-6.1,6.5-7.7,11.3c-2.3,7.3-3.4,15.3-3.4,24v63.5H240.6z"/>
	</g>
	<g>
		<path fill="#529DD9" d="M292.4,63.4c0-22.5,6.2-39.1,18.7-49.9C321.6,4.5,334.3,0,349.3,0c16.7,0,30.3,5.5,40.9,16.4
			c10.6,10.9,15.9,26,15.9,45.3c0,15.6-2.3,27.9-7,36.8c-4.7,9-11.5,15.9-20.5,20.9c-9,5-18.7,7.4-29.3,7.4
			c-17,0-30.7-5.4-41.2-16.3C297.6,99.6,292.4,83.9,292.4,63.4z M313.5,63.4c0,15.5,3.4,27.2,10.2,34.9c6.8,7.7,15.3,11.6,25.6,11.6
			c10.2,0,18.7-3.9,25.5-11.7S385,78.6,385,62.7c0-15-3.4-26.4-10.2-34.1c-6.8-7.7-15.3-11.6-25.4-11.6c-10.3,0-18.8,3.8-25.6,11.5
			C316.9,36.3,313.5,47.9,313.5,63.4z"/>
	</g>
	<g>
		<path fill="#529DD9" d="M411.5,124.1V2.7H430V20c8.9-13.3,21.8-20,38.6-20c7.3,0,14,1.3,20.2,3.9c6.1,2.6,10.7,6.1,13.8,10.3
			c3,4.3,5.2,9.3,6.4,15.2c0.8,3.8,1.1,10.5,1.1,20v74.6h-20.6V50.3c0-8.4-0.8-14.6-2.4-18.8c-1.6-4.2-4.4-7.5-8.5-9.9
			c-4.1-2.5-8.9-3.7-14.3-3.7c-8.8,0-16.3,2.8-22.7,8.3c-6.4,5.6-9.5,16.1-9.5,31.6v66.3H411.5z"/>
	</g>
</g>
<g>
	<g>
		<path fill="#828282" d="M527.8,124.1V2.7h18.5v18.4c4.7-8.6,9.1-14.3,13.1-17S567.8,0,572.6,0c6.9,0,14,2.2,21.1,6.6l-7.1,19.1
			c-5-3-10.1-4.5-15.1-4.5c-4.5,0-8.5,1.4-12.1,4.1c-3.6,2.7-6.1,6.5-7.7,11.3c-2.3,7.3-3.4,15.3-3.4,24v63.5H527.8z"/>
	</g>
	<g>
		<path fill="#828282" d="M586.6,63.4c0-22.5,6.2-39.1,18.7-49.9C615.8,4.5,628.5,0,643.5,0c16.7,0,30.3,5.5,40.9,16.4
			c10.6,10.9,15.9,26,15.9,45.3c0,15.6-2.3,27.9-7,36.8c-4.7,9-11.5,15.9-20.5,20.9c-9,5-18.7,7.4-29.3,7.4
			c-17,0-30.7-5.4-41.2-16.3C591.8,99.6,586.6,83.9,586.6,63.4z M607.7,63.4c0,15.5,3.4,27.2,10.2,34.9c6.8,7.7,15.3,11.6,25.6,11.6
			c10.2,0,18.7-3.9,25.5-11.7c6.8-7.8,10.2-19.6,10.2-35.5c0-15-3.4-26.4-10.2-34.1c-6.8-7.7-15.3-11.6-25.4-11.6
			c-10.3,0-18.8,3.8-25.6,11.5C611.1,36.3,607.7,47.9,607.7,63.4z"/>
	</g>
	<g>
		<path fill="#828282" d="M704.5,87.9l20.3-3.2c1.1,8.2,4.3,14.4,9.5,18.7c5.2,4.3,12.5,6.5,21.9,6.5c9.4,0,16.5-1.9,21-5.8
			c4.6-3.8,6.9-8.4,6.9-13.5c0-4.6-2-8.3-6.1-11c-2.8-1.8-9.8-4.2-21-7c-15.1-3.8-25.5-7.1-31.4-9.9c-5.8-2.8-10.2-6.6-13.3-11.5
			c-3-4.9-4.5-10.3-4.5-16.3c0-5.4,1.2-10.4,3.7-15c2.5-4.6,5.8-8.4,10.1-11.5c3.2-2.4,7.6-4.4,13.1-6c5.5-1.6,11.4-2.5,17.8-2.5
			c9.5,0,17.9,1.4,25.1,4.1s12.5,6.5,15.9,11.1c3.4,4.7,5.8,11,7.1,18.8l-20.1,2.7c-0.9-6.2-3.6-11.1-7.9-14.6
			c-4.4-3.5-10.6-5.3-18.6-5.3c-9.4,0-16.2,1.6-20.2,4.7c-4,3.1-6.1,6.8-6.1,11c0,2.7,0.8,5.1,2.5,7.2c1.7,2.2,4.3,4,7.9,5.5
			c2.1,0.8,8.1,2.5,18.2,5.3c14.5,3.9,24.7,7.1,30.4,9.5c5.8,2.5,10.3,6.1,13.5,10.8c3.3,4.7,4.9,10.6,4.9,17.6c0,6.9-2,13.3-6,19.4
			c-4,6.1-9.8,10.7-17.3,14.1c-7.5,3.3-16.1,5-25.6,5c-15.8,0-27.8-3.3-36-9.8C712,110.4,706.7,100.7,704.5,87.9z"/>
	</g>
	<g>
		<path fill="#828282" d="M901,85l21.3,2.6c-3.4,12.4-9.6,22.1-18.6,28.9c-9.1,6.9-20.6,10.3-34.7,10.3c-17.7,0-31.8-5.5-42.2-16.4
			c-10.4-10.9-15.6-26.3-15.6-46c0-20.4,5.3-36.3,15.8-47.5C837.4,5.6,851,0,867.8,0c16.2,0,29.5,5.5,39.8,16.6
			c10.3,11,15.4,26.6,15.4,46.6c0,1.2,0,3-0.1,5.5h-90.5c0.8,13.3,4.5,23.5,11.3,30.6c6.8,7.1,15.2,10.6,25.4,10.6
			c7.5,0,14-2,19.3-5.9C893.7,100,897.9,93.7,901,85z M833.5,51.8h67.8c-0.9-10.2-3.5-17.9-7.8-23c-6.6-7.9-15-11.9-25.5-11.9
			c-9.4,0-17.4,3.2-23.8,9.5C837.8,32.7,834.2,41.2,833.5,51.8z"/>
	</g>
</g>
<g>
	<g>
		<path fill="#828282" d="M933.8,123.8v-9.7h9.7v9.7H933.8z"/>
	</g>
	<g>
		<path fill="#828282" d="M958.3,123.8h-7.9v-69h8.5v24.6c3.6-4.5,8.1-6.7,13.7-6.7c3.1,0,6,0.6,8.7,1.9c2.7,1.2,5,3,6.8,5.2
			c1.8,2.2,3.2,5,4.2,8.1c1,3.2,1.5,6.6,1.5,10.2c0,8.6-2.1,15.2-6.4,19.9c-4.2,4.7-9.3,7-15.3,7c-5.9,0-10.5-2.5-13.9-7.4V123.8z
			 M958.2,98.4c0,6,0.8,10.3,2.4,13c2.7,4.4,6.3,6.5,10.8,6.5c3.7,0,6.9-1.6,9.6-4.8c2.7-3.2,4-8,4-14.4c0-6.5-1.3-11.3-3.9-14.5
			c-2.6-3.1-5.7-4.7-9.4-4.7c-3.7,0-6.9,1.6-9.6,4.8C959.6,87.7,958.2,92.4,958.2,98.4z"/>
	</g>
	<g>
		<path fill="#828282" d="M1000.3,64.5v-9.7h8.5v9.7H1000.3z M1000.3,123.8v-50h8.5v50H1000.3z"/>
	</g>
	<g>
		<path fill="#828282" d="M1018.2,123.8v-6.9l31.8-36.5c-3.6,0.2-6.8,0.3-9.6,0.3h-20.4v-6.9h40.9v5.6l-27.1,31.7l-5.2,5.8
			c3.8-0.3,7.4-0.4,10.7-0.4h23.1v7.3H1018.2z"/>
	</g>
</g>
<g>
	<path fill="#828282" d="M52.2,163.2l13.3,43.3L78.7,163c0.5-1.7,1.8-2.8,3.5-2.8c2,0,3.6,1.5,3.5,3.5c0,0.4-0.1,0.8-0.2,1.3
		l-15.4,47.4c-0.9,2.4-2.7,3.5-4.6,3.5c-2.1,0-4-1.5-4.6-3.5l-12.7-40.2l-12.7,40.2c-0.6,2-2.5,3.5-4.6,3.5c-2,0-3.8-1.1-4.6-3.5
		L10.6,165c-0.2-0.6-0.2-0.9-0.2-1.3c-0.2-2,1.4-3.5,3.5-3.5c1.7,0,3.1,1.2,3.5,2.8l13.2,43.5L44,163.2c0.6-1.7,2.2-3,4.1-3
		C50,160.2,51.6,161.4,52.2,163.2z"/>
	<path fill="#828282" d="M127.8,210c0,1.3-0.9,2.3-2,2.9c-3.5,2-6.9,3.5-13.8,3.5c-12.8,0-20.4-7.6-20.4-20.9
		c0-10.6,5.8-20.9,18.8-20.9c12.1,0,18.8,9.4,18.8,19.9c0,2-1.4,3.5-3.6,3.5H98.8c0.8,7.1,5.3,11.7,13.8,11.7
		c4.7,0,7.7-0.9,10.6-2.4c0.5-0.2,0.9-0.3,1.4-0.3C126.3,206.9,127.8,208.2,127.8,210z M98.8,192.2h23.2
		c-0.5-8.2-6.6-11.5-11.7-11.5S99.3,184,98.8,192.2z"/>
	<path fill="#828282" d="M178.6,195.5c0,13.4-9.5,20.9-19.1,20.9c-5.5,0-9.9-2.2-13.5-6v2c0,2-1.6,3.5-3.6,3.5c-2,0-3.5-1.6-3.5-3.5
		v-51.1c0-2,1.6-3.6,3.5-3.6c2,0,3.6,1.6,3.6,3.6v19.3c3.6-3.8,8-6,13.5-6C169,174.6,178.6,182.1,178.6,195.5z M171.4,195.5
		c0-9.3-5.4-14.2-12.9-14.2c-5.1,0-9.4,2.5-12.5,5.9v16.6c3.1,3.4,7.3,5.9,12.5,5.9C166,209.7,171.4,204.8,171.4,195.5z"/>
	<path fill="#828282" d="M257.7,188.1c0,13.2-9,27.5-27.8,27.5H214c-2,0-3.5-1.6-3.5-3.5v-47.8c0-2,1.6-3.6,3.5-3.6h15.8
		C248.7,160.6,257.7,174.8,257.7,188.1z M250.6,188.1c0-12.3-8.4-20.8-21.6-20.8h-11.3v41.6H229
		C242.2,208.9,250.6,200.4,250.6,188.1z"/>
	<path fill="#828282" d="M301.6,210c0,1.3-0.9,2.3-2,2.9c-3.5,2-6.9,3.5-13.8,3.5c-12.8,0-20.4-7.6-20.4-20.9
		c0-10.6,5.8-20.9,18.8-20.9c12.1,0,18.8,9.4,18.8,19.9c0,2-1.4,3.5-3.6,3.5h-26.7c0.8,7.1,5.3,11.7,13.8,11.7
		c4.7,0,7.7-0.9,10.6-2.4c0.5-0.2,0.9-0.3,1.4-0.3C300.1,206.9,301.6,208.2,301.6,210z M272.6,192.2h23.2
		c-0.5-8.2-6.6-11.5-11.7-11.5S273.1,184,272.6,192.2z"/>
	<path fill="#828282" d="M341.1,204.7c0,6.4-5.1,11.7-15.2,11.7c-5.8,0-10.3-1.3-14.3-3.5c-0.8-0.6-1.3-1.5-1.3-2.6
		c0-1.6,1.3-3.2,3.1-3.2c0.5,0,0.9,0.1,1.4,0.3c2.8,1.3,6.1,2.4,10.7,2.4c6.1,0,8.7-2,8.7-5.6c0-6.8-23.6-2.8-23.6-17.1
		c0-7.1,5.1-12.5,15.4-12.5c4.3,0,8.2,0.8,11.4,2c1.5,0.5,2.3,1.8,2.3,3c0,1.7-1.3,3.2-3.2,3.2c-0.4,0-0.7-0.1-1-0.2
		c-2.5-0.8-5.5-1.4-9-1.4c-5.8,0-9.1,2.4-9.1,5.5C317.3,194.9,341.1,189.3,341.1,204.7z"/>
	<path fill="#828282" d="M358.6,163.2c0,2.2-1.8,4-4,4c-0.1,0-0.2,0-0.5,0c-2.2,0-4-1.8-4-4c0-0.1,0-0.1,0-0.3c0-2.2,1.8-4,4-4
		c0.2,0,0.3,0,0.5,0c2.2,0,4,1.8,4,4C358.6,162.9,358.6,163.1,358.6,163.2z M357.9,178.6v33.8c0,2-1.6,3.5-3.6,3.5
		c-2,0-3.5-1.6-3.5-3.5v-33.8c0-2,1.6-3.6,3.5-3.6C356.3,175,357.9,176.6,357.9,178.6z"/>
	<path fill="#828282" d="M408,178.6v35.2c0,13.2-6.7,20.6-18.5,20.6c-6.4,0-13.2-2-16.9-4.1c-0.8-0.5-1.4-1.3-1.4-2.8
		c0-1.6,1.3-3.2,3.2-3.2c0.6,0,1,0.2,1.4,0.3c3.3,1.7,7.6,3,13,3c8,0,12.1-4.3,12.1-12.8v-5.3c-3.2,3.5-7.6,6-13.5,6
		c-8.7,0-19.1-6.5-19.1-20.5s10.3-20.5,19.1-20.5c5.9,0,10.2,2.5,13.5,6v-2c0-2,1.6-3.6,3.5-3.6C406.3,175,408,176.7,408,178.6z
		 M400.8,187c-2.9-3-6.5-5.8-12-5.8c-7.5,0-13.4,4.5-13.4,13.9c0,9.5,5.9,13.9,13.4,13.9c5.4,0,9.1-2.8,12-5.8V187z"/>
	<path fill="#828282" d="M456.3,190.1v22.4c0,2-1.7,3.5-3.6,3.5c-2,0-3.5-1.6-3.5-3.5v-21.6c0-6-2.5-9.6-8.7-9.6
		c-5.7,0-9.8,3.6-12.9,7.6v23.6c0,2-1.7,3.5-3.6,3.5c-2,0-3.5-1.6-3.5-3.5v-33.8c0-2,1.6-3.6,3.5-3.6c2,0,3.6,1.6,3.6,3.6v3.2
		c3.3-3.6,7.6-7.3,14.7-7.3C451.2,174.6,456.3,181.6,456.3,190.1z"/>
	<path fill="#828282" d="M533.4,210.5c0.8,0.7,1.3,1.3,1.3,2.5c0,1.7-1.2,3.2-3.2,3.2c-1,0-1.7-0.2-2.4-0.9l-5.3-5
		c-4.3,3.6-9.8,6.1-16.2,6.1c-13.9,0-19.3-8.4-19.3-16.2c0-8.1,5.8-13.2,8.9-15.1c-2.8-3.3-4.8-6.5-4.8-11.4
		c0-7.4,5.5-13.8,14.7-13.8c4,0,7.6,1.6,10.5,3.5c0.7,0.4,1.4,1.3,1.4,2.4c0,1.4-1.2,2.8-2.8,2.8c-0.5,0-0.9-0.2-1.4-0.4
		c-2-1.1-4.5-2-7.4-2c-5.5,0-8.4,3.6-8.4,7.3c0,4.7,2.2,6.9,7.9,12.2l16.5,15.5c1.2-1.7,2-3.5,2.6-4.8c0.5-1.1,1.7-2,3.1-2
		c1.9,0,3.3,1.3,3.3,3.2c0,0.6-0.2,1.1-0.4,1.6c-1,2.2-2.4,4.5-3.8,6.5L533.4,210.5z M501.5,189.4c-2.8,1.9-6.5,5.5-6.5,11
		c0,5.9,5.3,9.9,11.9,9.9c5.1,0,9.1-2,12.1-4.4L501.5,189.4z"/>
	<path fill="#828282" d="M615.7,188.1c0,13.2-9,27.5-27.8,27.5H572c-2,0-3.5-1.6-3.5-3.5v-47.8c0-2,1.6-3.6,3.5-3.6h15.8
		C606.7,160.6,615.7,174.8,615.7,188.1z M608.6,188.1c0-12.3-8.4-20.8-21.6-20.8h-11.3v41.6H587
		C600.2,208.9,608.6,200.4,608.6,188.1z"/>
	<path fill="#828282" d="M659.6,210c0,1.3-0.9,2.3-2,2.9c-3.5,2-6.9,3.5-13.8,3.5c-12.8,0-20.4-7.6-20.4-20.9
		c0-10.6,5.8-20.9,18.8-20.9c12.1,0,18.8,9.4,18.8,19.9c0,2-1.4,3.5-3.6,3.5h-26.7c0.8,7.1,5.3,11.7,13.8,11.7
		c4.7,0,7.7-0.9,10.6-2.4c0.5-0.2,0.9-0.3,1.4-0.3C658.1,206.9,659.6,208.2,659.6,210z M630.6,192.2h23.3
		c-0.5-8.2-6.6-11.5-11.7-11.5C637.1,180.7,631.1,184,630.6,192.2z"/>
	<path fill="#828282" d="M703.7,178.6c0,0.6-0.2,1.1-0.4,1.7l-13.7,32.8c-0.7,1.6-2.4,2.9-4.3,2.9h-0.8c-2,0-3.6-1.3-4.3-2.9
		l-13.7-32.8c-0.2-0.6-0.4-1-0.4-1.7c0-2,1.6-3.6,3.5-3.6c1.4,0,2.8,0.9,3.2,2l12.1,30.6l12.1-30.6c0.5-1.2,1.8-2,3.2-2
		C702.1,175,703.7,176.7,703.7,178.6z"/>
	<path fill="#828282" d="M745.3,210c0,1.3-0.9,2.3-2,2.9c-3.5,2-6.9,3.5-13.8,3.5c-12.8,0-20.4-7.6-20.4-20.9
		c0-10.6,5.8-20.9,18.8-20.9c12.1,0,18.8,9.4,18.8,19.9c0,2-1.4,3.5-3.6,3.5h-26.7c0.8,7.1,5.3,11.7,13.8,11.7
		c4.7,0,7.7-0.9,10.6-2.4c0.5-0.2,0.9-0.3,1.4-0.3C743.8,206.9,745.3,208.2,745.3,210z M716.3,192.2h23.3
		c-0.5-8.2-6.6-11.5-11.7-11.5C722.9,180.7,716.8,184,716.3,192.2z"/>
	<path fill="#828282" d="M764.2,161.3v51.1c0,2-1.6,3.5-3.6,3.5c-2,0-3.5-1.6-3.5-3.5v-51.1c0-2,1.6-3.6,3.5-3.6
		C762.6,157.7,764.2,159.2,764.2,161.3z"/>
	<path fill="#828282" d="M815.1,195.5c0,12.5-8,20.9-20.2,20.9c-12.2,0-20.2-8.4-20.2-20.9c0-12.5,8-20.9,20.2-20.9
		C807.1,174.6,815.1,183,815.1,195.5z M808,195.4c0-10.4-7-14.3-13-14.3c-6.1,0-13,3.9-13,14.3c0,10.5,6.9,14.4,13,14.4
		C801,209.8,808,205.9,808,195.4z"/>
	<path fill="#828282" d="M832.3,210.4v20.1c0,2-1.6,3.6-3.6,3.6c-2,0-3.5-1.6-3.5-3.6v-51.9c0-2,1.6-3.5,3.5-3.5
		c2,0,3.6,1.6,3.6,3.5v2c3.6-3.8,8-6,13.5-6c9.5,0,19.1,7.5,19.1,20.9s-9.5,20.9-19.1,20.9C840.3,216.4,835.9,214.2,832.3,210.4z
		 M832.3,187.2v16.6c3.1,3.4,7.3,5.9,12.5,5.9c7.5,0,12.9-4.9,12.9-14.2s-5.4-14.2-12.9-14.2C839.6,181.3,835.4,183.8,832.3,187.2z"
		/>
	<path fill="#828282" d="M935.2,189.7v22.7c0,2-1.7,3.5-3.6,3.5c-2,0-3.5-1.6-3.5-3.5v-21.3c0-6.6-2-9.9-8-9.9c-6,0-9.2,4-11.3,7.6
		v23.6c0,2-1.7,3.5-3.6,3.5c-2,0-3.5-1.6-3.5-3.5v-21.3c0-6.6-2-9.9-8-9.9c-6,0-9.2,4-11.3,7.6v23.6c0,2-1.7,3.5-3.6,3.5
		c-2,0-3.5-1.6-3.5-3.5v-33.8c0-2,1.6-3.6,3.5-3.6c2,0,3.6,1.7,3.6,3.6v3.2c2.2-3.1,5.9-7.3,13.4-7.3c6.3,0,10.4,4,12.1,8.1
		c1.8-3,5.8-8.1,14.5-8.1C931.3,174.6,935.2,182.7,935.2,189.7z"/>
	<path fill="#828282" d="M981.2,210c0,1.3-0.9,2.3-2,2.9c-3.5,2-6.9,3.5-13.8,3.5c-12.8,0-20.4-7.6-20.4-20.9
		c0-10.6,5.8-20.9,18.8-20.9c12.1,0,18.8,9.4,18.8,19.9c0,2-1.4,3.5-3.6,3.5h-26.7c0.8,7.1,5.3,11.7,13.8,11.7
		c4.7,0,7.7-0.9,10.6-2.4c0.5-0.2,0.9-0.3,1.4-0.3C979.7,206.9,981.2,208.2,981.2,210z M952.2,192.2h23.3
		c-0.5-8.2-6.6-11.5-11.7-11.5C958.7,180.7,952.7,184,952.2,192.2z"/>
	<path fill="#828282" d="M1028.1,190.1v22.4c0,2-1.7,3.5-3.6,3.5c-2,0-3.5-1.6-3.5-3.5v-21.6c0-6-2.5-9.6-8.7-9.6
		c-5.7,0-9.8,3.6-12.9,7.6v23.6c0,2-1.7,3.5-3.6,3.5c-2,0-3.5-1.6-3.5-3.5v-33.8c0-2,1.6-3.6,3.5-3.6c2,0,3.6,1.6,3.6,3.6v3.2
		c3.3-3.6,7.6-7.3,14.7-7.3C1023,174.6,1028.1,181.6,1028.1,190.1z"/>
	<path fill="#828282" d="M1062.3,212.2c0,1.3-0.7,2.2-1.8,2.8c-1.9,0.9-4,1.4-6.5,1.4c-3.7,0-11.5-0.6-11.5-10.4v-24.4h-5.6
		c-0.9,0-1.5-0.6-1.5-1.5c0-0.5,0.2-0.9,0.7-1.3l10.7-10.5c0.2-0.2,0.7-0.7,1.3-0.7c0.9,0,1.5,0.7,1.5,1.6v6.3h8.9
		c1.7,0,3.1,1.3,3.1,3.1s-1.3,3.1-3.1,3.1h-8.9v23.8c0,4.6,3.2,4.7,5.1,4.7c2.5,0,3.4-0.7,4.7-0.7
		C1060.9,209.4,1062.3,210.5,1062.3,212.2z"/>
</g>
<g>
	<line fill="none" x1="0" y1="147.1" x2="1068" y2="147.1"/>
</g>
</svg>
