<?xml version="1.0" encoding="utf-8"?>
<!-- Generator: Adobe Illustrator 17.1.0, SVG Export Plug-In . SVG Version: 6.00 Build 0)  -->
<!DOCTYPE svg PUBLIC "-//W3C//DTD SVG 1.1//EN" "http://www.w3.org/Graphics/SVG/1.1/DTD/svg11.dtd">
<svg version="1.1" id="Layer_1" xmlns="http://www.w3.org/2000/svg" xmlns:xlink="http://www.w3.org/1999/xlink" x="0px" y="0px"
	 viewBox="0 0 1059.4 126.8" enable-background="new 0 0 1059.4 126.8" xml:space="preserve">
<g>
	<path fill="#529DD9" d="M86.1,109.1c-7.6,6.5-14.9,11-22,13.7c-7,2.7-14.6,4-22.7,4c-13.3,0-23.6-3.3-30.7-9.8
		C3.6,110.5,0,102.2,0,92.1c0-5.9,1.4-11.4,4.1-16.3C6.8,70.9,10.3,67,14.7,64c4.4-3,9.3-5.2,14.8-6.7c4-1.1,10.1-2.1,18.3-3.1
		c16.6-2,28.8-4.3,36.7-7.1c0.1-2.8,0.1-4.6,0.1-5.4c0-8.4-1.9-14.3-5.8-17.7c-5.3-4.6-13.1-7-23.4-7c-9.7,0-16.8,1.7-21.4,5.1
		c-4.6,3.4-8,9.4-10.2,18L3.5,37.4c1.8-8.6,4.8-15.6,9-20.9c4.2-5.3,10.2-9.4,18.2-12.2C38.7,1.4,47.8,0,58.3,0
		C68.6,0,77,1.2,83.5,3.7c6.5,2.4,11.2,5.5,14.3,9.2c3,3.7,5.2,8.4,6.4,14c0.7,3.5,1,9.8,1,19v27.4c0,19.1,0.4,31.2,1.3,36.3
		c0.9,5.1,2.6,9.9,5.2,14.6H90.3C88.1,119.8,86.8,114.8,86.1,109.1z M84.4,63.2c-7.5,3-18.7,5.6-33.6,7.8
		c-8.5,1.2-14.4,2.6-17.9,4.1c-3.5,1.5-6.2,3.8-8.1,6.7c-1.9,2.9-2.9,6.2-2.9,9.8c0,5.5,2.1,10.1,6.2,13.7
		c4.2,3.7,10.2,5.5,18.2,5.5c7.9,0,15-1.7,21.1-5.2c6.2-3.5,10.7-8.2,13.6-14.2c2.2-4.6,3.3-11.5,3.3-20.6V63.2z"/>
	<path fill="#529DD9" d="M197.6,109.1c-7.6,6.5-14.9,11-22,13.7c-7,2.7-14.6,4-22.7,4c-13.3,0-23.6-3.3-30.7-9.8
		c-7.2-6.5-10.7-14.8-10.7-25c0-5.9,1.4-11.4,4.1-16.3c2.7-4.9,6.2-8.9,10.6-11.8c4.4-3,9.3-5.2,14.8-6.7c4-1.1,10.1-2.1,18.3-3.1
		c16.6-2,28.8-4.3,36.7-7.1c0.1-2.8,0.1-4.6,0.1-5.4c0-8.4-1.9-14.3-5.8-17.7c-5.3-4.6-13.1-7-23.4-7c-9.7,0-16.8,1.7-21.4,5.1
		c-4.6,3.4-8,9.4-10.2,18L115,37.4c1.8-8.6,4.8-15.6,9-20.9c4.2-5.3,10.2-9.4,18.2-12.2c7.9-2.9,17.1-4.3,27.5-4.3
		c10.4,0,18.8,1.2,25.3,3.7c6.5,2.4,11.2,5.5,14.3,9.2c3,3.7,5.2,8.4,6.4,14c0.7,3.5,1,9.8,1,19v27.4c0,19.1,0.4,31.2,1.3,36.3
		c0.9,5.1,2.6,9.9,5.2,14.6h-21.5C199.5,119.8,198.2,114.8,197.6,109.1z M195.9,63.2c-7.5,3-18.7,5.6-33.6,7.8
		c-8.5,1.2-14.4,2.6-17.9,4.1c-3.5,1.5-6.2,3.8-8.1,6.7c-1.9,2.9-2.9,6.2-2.9,9.8c0,5.5,2.1,10.1,6.2,13.7
		c4.2,3.7,10.2,5.5,18.2,5.5c7.9,0,15-1.7,21.1-5.2c6.2-3.5,10.7-8.2,13.6-14.2c2.2-4.6,3.3-11.5,3.3-20.6V63.2z"/>
	<path fill="#529DD9" d="M229.6,124.1V2.7h18.5v18.4c4.7-8.6,9.1-14.3,13.1-17S269.6,0,274.4,0c6.9,0,14,2.2,21.1,6.6l-7.1,19.1
		c-5-3-10.1-4.5-15.1-4.5c-4.5,0-8.5,1.4-12.1,4.1c-3.6,2.7-6.1,6.5-7.7,11.3c-2.3,7.3-3.4,15.3-3.4,24v63.5H229.6z"/>
	<path fill="#529DD9" d="M281.4,63.4c0-22.5,6.2-39.1,18.7-49.9C310.5,4.5,323.2,0,338.3,0c16.7,0,30.3,5.5,40.9,16.4
		c10.6,10.9,15.9,26,15.9,45.3c0,15.6-2.3,27.9-7,36.8c-4.7,9-11.5,15.9-20.5,20.9c-9,5-18.7,7.4-29.3,7.4c-17,0-30.7-5.4-41.2-16.3
		C286.6,99.6,281.4,83.9,281.4,63.4z M302.5,63.4c0,15.5,3.4,27.2,10.2,34.9c6.8,7.7,15.3,11.6,25.6,11.6c10.2,0,18.7-3.9,25.5-11.7
		s10.2-19.6,10.2-35.5c0-15-3.4-26.4-10.2-34.1c-6.8-7.7-15.3-11.6-25.4-11.6c-10.3,0-18.8,3.8-25.6,11.5
		C305.9,36.3,302.5,47.9,302.5,63.4z"/>
	<path fill="#529DD9" d="M400.4,124.1V2.7h18.5V20c8.9-13.3,21.8-20,38.6-20c7.3,0,14,1.3,20.2,3.9c6.1,2.6,10.7,6.1,13.8,10.3
		c3,4.3,5.2,9.3,6.4,15.2c0.8,3.8,1.1,10.5,1.1,20v74.6h-20.6V50.3c0-8.4-0.8-14.6-2.4-18.8c-1.6-4.2-4.4-7.5-8.5-9.9
		c-4.1-2.5-8.9-3.7-14.3-3.7c-8.8,0-16.3,2.8-22.7,8.3c-6.4,5.6-9.5,16.1-9.5,31.6v66.3H400.4z"/>
</g>
<g>
	<path fill="#828282" d="M524.7,124.1V2.7h18.5v18.4c4.7-8.6,9.1-14.3,13.1-17c4-2.7,8.4-4.1,13.2-4.1c6.9,0,14,2.2,21.1,6.6
		l-7.1,19.1c-5-3-10.1-4.5-15.1-4.5c-4.5,0-8.5,1.4-12.1,4.1c-3.6,2.7-6.1,6.5-7.7,11.3c-2.3,7.3-3.4,15.3-3.4,24v63.5H524.7z"/>
	<path fill="#828282" d="M583.5,63.4c0-22.5,6.2-39.1,18.7-49.9C612.7,4.5,625.4,0,640.4,0c16.7,0,30.3,5.5,40.9,16.4
		c10.6,10.9,15.9,26,15.9,45.3c0,15.6-2.3,27.9-7,36.8c-4.7,9-11.5,15.9-20.5,20.9c-9,5-18.7,7.4-29.3,7.4c-17,0-30.7-5.4-41.2-16.3
		C588.8,99.6,583.5,83.9,583.5,63.4z M604.7,63.4c0,15.5,3.4,27.2,10.2,34.9c6.8,7.7,15.3,11.6,25.6,11.6c10.2,0,18.7-3.9,25.5-11.7
		c6.8-7.8,10.2-19.6,10.2-35.5c0-15-3.4-26.4-10.2-34.1C659,20.9,650.6,17,640.4,17c-10.3,0-18.8,3.8-25.6,11.5
		C608.1,36.3,604.7,47.9,604.7,63.4z"/>
	<path fill="#828282" d="M701.4,87.9l20.3-3.2c1.1,8.2,4.3,14.4,9.5,18.7c5.2,4.3,12.5,6.5,21.9,6.5c9.4,0,16.5-1.9,21-5.8
		c4.6-3.8,6.9-8.4,6.9-13.5c0-4.6-2-8.3-6.1-11c-2.8-1.8-9.8-4.2-21-7c-15.1-3.8-25.5-7.1-31.4-9.9c-5.8-2.8-10.2-6.6-13.3-11.5
		c-3-4.9-4.5-10.3-4.5-16.3c0-5.4,1.2-10.4,3.7-15c2.5-4.6,5.8-8.4,10.1-11.5c3.2-2.4,7.6-4.4,13.1-6c5.5-1.6,11.4-2.5,17.8-2.5
		c9.5,0,17.9,1.4,25.1,4.1c7.2,2.7,12.5,6.5,15.9,11.1c3.4,4.7,5.8,11,7.1,18.8l-20.1,2.7c-0.9-6.2-3.6-11.1-7.9-14.6
		c-4.4-3.5-10.6-5.3-18.6-5.3c-9.4,0-16.2,1.6-20.2,4.7c-4,3.1-6.1,6.8-6.1,11c0,2.7,0.8,5.1,2.5,7.2c1.7,2.2,4.3,4,7.9,5.5
		c2.1,0.8,8.1,2.5,18.2,5.3c14.5,3.9,24.7,7.1,30.4,9.5c5.8,2.5,10.3,6.1,13.5,10.8c3.3,4.7,4.9,10.6,4.9,17.6c0,6.9-2,13.3-6,19.4
		c-4,6.1-9.8,10.7-17.3,14.1s-16.1,5-25.6,5c-15.8,0-27.8-3.3-36-9.8C709,110.4,703.7,100.7,701.4,87.9z"/>
	<path fill="#828282" d="M898,85l21.3,2.6c-3.4,12.4-9.6,22.1-18.6,28.9c-9.1,6.9-20.6,10.3-34.7,10.3c-17.7,0-31.8-5.5-42.2-16.4
		c-10.4-10.9-15.6-26.3-15.6-46c0-20.4,5.3-36.3,15.8-47.5C834.4,5.6,848,0,864.7,0c16.2,0,29.5,5.5,39.8,16.6
		c10.3,11,15.4,26.6,15.4,46.6c0,1.2,0,3-0.1,5.5h-90.5c0.8,13.3,4.5,23.5,11.3,30.6c6.8,7.1,15.2,10.6,25.4,10.6
		c7.5,0,14-2,19.3-5.9C890.6,100,894.9,93.7,898,85z M830.5,51.8h67.8c-0.9-10.2-3.5-17.9-7.8-23c-6.6-7.9-15-11.9-25.5-11.9
		c-9.4,0-17.4,3.2-23.8,9.5C834.7,32.7,831.2,41.2,830.5,51.8z"/>
</g>
<g>
	<path fill="#828282" d="M930.8,123.8v-9.7h9.7v9.7H930.8z"/>
	<path fill="#828282" d="M955.3,123.8h-7.9v-69h8.5v24.6c3.6-4.5,8.1-6.7,13.7-6.7c3.1,0,6,0.6,8.7,1.9c2.7,1.2,5,3,6.8,5.2
		c1.8,2.2,3.2,5,4.2,8.1c1,3.2,1.5,6.6,1.5,10.2c0,8.6-2.1,15.2-6.4,19.9c-4.2,4.7-9.3,7-15.3,7c-5.9,0-10.5-2.5-13.9-7.4V123.8z
		 M955.2,98.4c0,6,0.8,10.3,2.4,13c2.7,4.4,6.3,6.5,10.8,6.5c3.7,0,6.9-1.6,9.6-4.8c2.7-3.2,4-8,4-14.4c0-6.5-1.3-11.3-3.9-14.5
		c-2.6-3.1-5.7-4.7-9.4-4.7c-3.7,0-6.9,1.6-9.6,4.8C956.5,87.7,955.2,92.4,955.2,98.4z"/>
	<path fill="#828282" d="M997.3,64.5v-9.7h8.5v9.7H997.3z M997.3,123.8v-50h8.5v50H997.3z"/>
	<path fill="#828282" d="M1015.1,123.8v-6.9l31.8-36.5c-3.6,0.2-6.8,0.3-9.6,0.3H1017v-6.9h40.9v5.6l-27.1,31.7l-5.2,5.8
		c3.8-0.3,7.4-0.4,10.7-0.4h23.1v7.3H1015.1z"/>
</g>
</svg>
